<svg xmlns="http://www.w3.org/2000/svg" viewBox="0 0 1600 900" font-family="Helvetica, Arial, sans-serif">
<rect width="1600" height="900" fill="#FFFFFF"/>
<rect x="96" y="180" width="22" height="22" rx="3" fill="#1D63ED"/><rect x="122" y="180" width="22" height="22" rx="3" fill="#1D63ED"/><rect x="148" y="180" width="22" height="22" rx="3" fill="#1D63ED"/><rect x="174" y="180" width="22" height="22" rx="3" fill="#1D63ED"/><rect x="122" y="154" width="22" height="22" rx="3" fill="#1D63ED"/><rect x="148" y="154" width="22" height="22" rx="3" fill="#1D63ED"/><rect x="122" y="128" width="22" height="22" rx="3" fill="#1D63ED"/><rect x="78" y="208" width="140" height="26" rx="13" fill="#1D63ED"/><path d="M78,210 q-16,-4 -22,-18 q14,2 22,12 Z" fill="#1D63ED"/><circle cx="92" cy="221" r="4" fill="#FFFFFF"/>
<text x="230" y="222" font-size="46" font-weight="800" fill="#17191E">docker</text>
<text x="230" y="272" font-size="46" font-weight="800" fill="#1D63ED">hardened images</text>
<path d="M110,370 l26,10 v20 c0,20 -12,30 -26,38 c-14,-8 -26,-18 -26,-38 v-20 Z" fill="none" stroke="#7C5CFC" stroke-width="4" stroke-linejoin="round"/><path d="M110,394 v22 M99,405 h22" stroke="#7C5CFC" stroke-width="4" stroke-linecap="round"/>
<text x="185" y="394" font-size="33" font-weight="700" fill="#17191E">Ultra-Minimal Footprint with</text>
<text x="185" y="434" font-size="33" font-weight="700" fill="#17191E">Near-Zero CVEs</text>
<path d="M110,530 l26,15 v30 l-26,15 l-26,-15 v-30 Z" fill="none" stroke="#7C5CFC" stroke-width="4" stroke-linejoin="round"/><path d="M84,545 l26,15 l26,-15 M110,560 v30" stroke="#7C5CFC" stroke-width="3" fill="none" opacity="0.55"/><path d="M99,564 l7,8 l14,-16" stroke="#7C5CFC" stroke-width="4" fill="none" stroke-linecap="round" stroke-linejoin="round"/>
<text x="185" y="554" font-size="33" font-weight="700" fill="#17191E">7-Day Remediation for Critical &amp;</text>
<text x="185" y="594" font-size="33" font-weight="700" fill="#17191E">High CVEs, SLA-Guaranteed</text>
<path d="M110,690 l26,10 v20 c0,20 -12,30 -26,38 c-14,-8 -26,-18 -26,-38 v-20 Z" fill="none" stroke="#7C5CFC" stroke-width="4" stroke-linejoin="round"/><path d="M97,724 l9,10 l17,-20" stroke="#7C5CFC" stroke-width="4" fill="none" stroke-linecap="round" stroke-linejoin="round"/>
<text x="185" y="714" font-size="33" font-weight="700" fill="#17191E">Built in provenance, SLSA</text>
<text x="185" y="754" font-size="33" font-weight="700" fill="#17191E">compliance, SBOMs</text>
<text x="70" y="852" font-size="27" fill="#1D63ED" text-decoration="underline">https://hub.docker.com/hardened-images/catalog</text>
<rect x="844" y="74" width="712" height="800" rx="16" fill="#C9D2E0" opacity="0.5"/>
<rect x="838" y="66" width="712" height="800" rx="16" fill="#FFFFFF" stroke="#E4E8EF" stroke-width="1.5"/>
<path d="M838,82 a16,16 0 0 1 16,-16 h680 a16,16 0 0 1 16,16 v48 h-712 Z" fill="#1D63ED"/>
<text x="868" y="108" font-size="19" font-weight="800" fill="#FFFFFF">docker hub</text>
<rect x="1320" y="82" width="210" height="30" rx="15" fill="#FFFFFF" opacity="0.22"/>
<text x="1355" y="102" font-size="13" fill="#EAF0FF">Search</text>
<text x="866" y="178" font-size="25" font-weight="800" fill="#17191E">Docker hardened images</text>
<text x="866" y="206" font-size="13" fill="#5B6B84">Enterprise-ready, secure container images with built-in compliance and minimal vulnerabilities.</text>
<rect x="866" y="224" width="506" height="42" rx="8" fill="#FFFFFF" stroke="#E4E8EF" stroke-width="1.5"/>
<circle cx="888" cy="245" r="7" fill="none" stroke="#5B6B84" stroke-width="2"/>
<text x="908" y="251" font-size="14" fill="#5B6B84">Search</text>
<rect x="1384" y="224" width="138" height="42" rx="8" fill="#FFFFFF" stroke="#E4E8EF" stroke-width="1.5"/>
<text x="1453" y="251" font-size="13" fill="#5B6B84" text-anchor="middle">Filter by...</text>
<clipPath id="pnl"><rect x="838" y="138" width="712" height="728" rx="16"/></clipPath>
<g clip-path="url(#pnl)">
<rect x="866.0" y="290" width="208.0" height="224" rx="8" fill="#FFFFFF" stroke="#E4E8EF" stroke-width="1.5"/><text x="882.0" y="312" font-size="9.5" font-weight="700" fill="#8250DF" letter-spacing="0.8">HARDENED IMAGE</text><rect x="882.0" y="324" width="34" height="34" rx="7" fill="#1B2530"/><text x="899.0" y="347" font-size="16" font-weight="800" fill="#FFFFFF" text-anchor="middle">A</text><text x="924.0" y="340" font-size="15" font-weight="800" fill="#17191E">arangodb</text><text x="924.0" y="356" font-size="11" fill="#1D63ED">arangodb</text><text x="882.0" y="386" font-size="10.5" fill="#5B6B84">Multi-model NoSQL database optimized for</text><text x="882.0" y="402" font-size="10.5" fill="#5B6B84">flexibility and performance.</text><text x="882.0" y="430" font-size="10.5" fill="#5B6B84">OS</text><text x="1058.0" y="430" font-size="10.5" font-weight="600" fill="#17191E" text-anchor="end">Alpine, Debian</text><text x="882.0" y="452" font-size="10.5" fill="#5B6B84">Architecture</text><text x="1058.0" y="452" font-size="10.5" font-weight="600" fill="#17191E" text-anchor="end">amd64, arm64</text><text x="882.0" y="474" font-size="10.5" fill="#5B6B84">Compliance</text><text x="1058.0" y="474" font-size="10.5" font-weight="600" fill="#17191E" text-anchor="end">FIPS</text>
<rect x="1090.0" y="290" width="208.0" height="224" rx="8" fill="#FFFFFF" stroke="#E4E8EF" stroke-width="1.5"/><text x="1106.0" y="312" font-size="9.5" font-weight="700" fill="#8250DF" letter-spacing="0.8">HARDENED IMAGE</text><rect x="1106.0" y="324" width="34" height="34" rx="7" fill="#1B2530"/><text x="1123.0" y="347" font-size="16" font-weight="800" fill="#FFFFFF" text-anchor="middle">R</text><text x="1148.0" y="340" font-size="15" font-weight="800" fill="#17191E">redis</text><text x="1148.0" y="356" font-size="11" fill="#1D63ED">redis</text><text x="1106.0" y="386" font-size="10.5" fill="#5B6B84">In-memory key-value store ideal for caching and</text><text x="1106.0" y="402" font-size="10.5" fill="#5B6B84">real-time data.</text><text x="1106.0" y="430" font-size="10.5" fill="#5B6B84">OS</text><text x="1282.0" y="430" font-size="10.5" font-weight="600" fill="#17191E" text-anchor="end">Alpine, Debian</text><text x="1106.0" y="452" font-size="10.5" fill="#5B6B84">Architecture</text><text x="1282.0" y="452" font-size="10.5" font-weight="600" fill="#17191E" text-anchor="end">amd64, arm64</text><text x="1106.0" y="474" font-size="10.5" fill="#5B6B84">Compliance</text><text x="1282.0" y="474" font-size="10.5" font-weight="600" fill="#17191E" text-anchor="end">FIPS</text>
<rect x="1314.0" y="290" width="208.0" height="224" rx="8" fill="#FFFFFF" stroke="#E4E8EF" stroke-width="1.5"/><text x="1330.0" y="312" font-size="9.5" font-weight="700" fill="#8250DF" letter-spacing="0.8">HARDENED IMAGE</text><rect x="1330.0" y="324" width="34" height="34" rx="7" fill="#1B2530"/><text x="1347.0" y="347" font-size="16" font-weight="800" fill="#FFFFFF" text-anchor="middle">T</text><text x="1372.0" y="340" font-size="15" font-weight="800" fill="#17191E">tomcat</text><text x="1372.0" y="356" font-size="11" fill="#1D63ED">apache</text><text x="1330.0" y="386" font-size="10.5" fill="#5B6B84">Java servlet container for running web</text><text x="1330.0" y="402" font-size="10.5" fill="#5B6B84">applications.</text><text x="1330.0" y="430" font-size="10.5" fill="#5B6B84">OS</text><text x="1506.0" y="430" font-size="10.5" font-weight="600" fill="#17191E" text-anchor="end">Alpine, Debian</text><text x="1330.0" y="452" font-size="10.5" fill="#5B6B84">Architecture</text><text x="1506.0" y="452" font-size="10.5" font-weight="600" fill="#17191E" text-anchor="end">amd64, arm64</text><text x="1330.0" y="474" font-size="10.5" fill="#5B6B84">Compliance</text><text x="1506.0" y="474" font-size="10.5" font-weight="600" fill="#17191E" text-anchor="end">FIPS</text>
<rect x="866.0" y="532" width="208.0" height="224" rx="8" fill="#FFFFFF" stroke="#E4E8EF" stroke-width="1.5"/><text x="882.0" y="554" font-size="9.5" font-weight="700" fill="#8250DF" letter-spacing="0.8">HARDENED IMAGE</text><rect x="882.0" y="566" width="34" height="34" rx="7" fill="#1B2530"/><text x="899.0" y="589" font-size="16" font-weight="800" fill="#FFFFFF" text-anchor="middle">G</text><text x="924.0" y="582" font-size="15" font-weight="800" fill="#17191E">grafana</text><text x="924.0" y="598" font-size="11" fill="#1D63ED">grafana</text><text x="882.0" y="628" font-size="10.5" fill="#5B6B84">Analytics dashboard platform for visualizing</text><text x="882.0" y="644" font-size="10.5" fill="#5B6B84">time-series data.</text><text x="882.0" y="672" font-size="10.5" fill="#5B6B84">OS</text><text x="1058.0" y="672" font-size="10.5" font-weight="600" fill="#17191E" text-anchor="end">Alpine, Debian</text><text x="882.0" y="694" font-size="10.5" fill="#5B6B84">Architecture</text><text x="1058.0" y="694" font-size="10.5" font-weight="600" fill="#17191E" text-anchor="end">amd64, arm64</text><text x="882.0" y="716" font-size="10.5" fill="#5B6B84">Compliance</text><text x="1058.0" y="716" font-size="10.5" font-weight="600" fill="#17191E" text-anchor="end">FIPS</text>
<rect x="1090.0" y="532" width="208.0" height="224" rx="8" fill="#FFFFFF" stroke="#E4E8EF" stroke-width="1.5"/><text x="1106.0" y="554" font-size="9.5" font-weight="700" fill="#8250DF" letter-spacing="0.8">HARDENED IMAGE</text><rect x="1106.0" y="566" width="34" height="34" rx="7" fill="#1B2530"/><text x="1123.0" y="589" font-size="16" font-weight="800" fill="#FFFFFF" text-anchor="middle">G</text><text x="1148.0" y="582" font-size="15" font-weight="800" fill="#17191E">golang</text><text x="1148.0" y="598" font-size="11" fill="#1D63ED">go</text><text x="1106.0" y="628" font-size="10.5" fill="#5B6B84">Lightweight compiler and toolchain for</text><text x="1106.0" y="644" font-size="10.5" fill="#5B6B84">building Go applications.</text><text x="1106.0" y="672" font-size="10.5" fill="#5B6B84">OS</text><text x="1282.0" y="672" font-size="10.5" font-weight="600" fill="#17191E" text-anchor="end">Alpine, Debian</text><text x="1106.0" y="694" font-size="10.5" fill="#5B6B84">Architecture</text><text x="1282.0" y="694" font-size="10.5" font-weight="600" fill="#17191E" text-anchor="end">amd64, arm64</text><text x="1106.0" y="716" font-size="10.5" fill="#5B6B84">Compliance</text><text x="1282.0" y="716" font-size="10.5" font-weight="600" fill="#17191E" text-anchor="end">FIPS</text>
<rect x="1314.0" y="532" width="208.0" height="224" rx="8" fill="#FFFFFF" stroke="#E4E8EF" stroke-width="1.5"/><text x="1330.0" y="554" font-size="9.5" font-weight="700" fill="#8250DF" letter-spacing="0.8">HARDENED IMAGE</text><rect x="1330.0" y="566" width="34" height="34" rx="7" fill="#1B2530"/><text x="1347.0" y="589" font-size="16" font-weight="800" fill="#FFFFFF" text-anchor="middle">N</text><text x="1372.0" y="582" font-size="15" font-weight="800" fill="#17191E">node.js</text><text x="1372.0" y="598" font-size="11" fill="#1D63ED">node.js</text><text x="1330.0" y="628" font-size="10.5" fill="#5B6B84">JavaScript runtime built on Chrome's V8</text><text x="1330.0" y="644" font-size="10.5" fill="#5B6B84">engine for scalable apps.</text><text x="1330.0" y="672" font-size="10.5" fill="#5B6B84">OS</text><text x="1506.0" y="672" font-size="10.5" font-weight="600" fill="#17191E" text-anchor="end">Alpine, Debian</text><text x="1330.0" y="694" font-size="10.5" fill="#5B6B84">Architecture</text><text x="1506.0" y="694" font-size="10.5" font-weight="600" fill="#17191E" text-anchor="end">amd64, arm64</text><text x="1330.0" y="716" font-size="10.5" fill="#5B6B84">Compliance</text><text x="1506.0" y="716" font-size="10.5" font-weight="600" fill="#17191E" text-anchor="end">FIPS</text>
<rect x="866.0" y="774" width="208.0" height="224" rx="8" fill="#FFFFFF" stroke="#E4E8EF" stroke-width="1.5"/><text x="882.0" y="796" font-size="9.5" font-weight="700" fill="#8250DF" letter-spacing="0.8">HARDENED IMAGE</text><rect x="882.0" y="808" width="34" height="34" rx="7" fill="#1B2530"/><text x="899.0" y="831" font-size="16" font-weight="800" fill="#FFFFFF" text-anchor="middle">A</text><text x="924.0" y="824" font-size="15" font-weight="800" fill="#17191E">azul</text><text x="924.0" y="840" font-size="11" fill="#1D63ED">azul</text><text x="882.0" y="914" font-size="10.5" fill="#5B6B84">OS</text><text x="1058.0" y="914" font-size="10.5" font-weight="600" fill="#17191E" text-anchor="end">Alpine, Debian</text><text x="882.0" y="936" font-size="10.5" fill="#5B6B84">Architecture</text><text x="1058.0" y="936" font-size="10.5" font-weight="600" fill="#17191E" text-anchor="end">amd64, arm64</text><text x="882.0" y="958" font-size="10.5" fill="#5B6B84">Compliance</text><text x="1058.0" y="958" font-size="10.5" font-weight="600" fill="#17191E" text-anchor="end">FIPS</text>
<rect x="1090.0" y="774" width="208.0" height="224" rx="8" fill="#FFFFFF" stroke="#E4E8EF" stroke-width="1.5"/><text x="1106.0" y="796" font-size="9.5" font-weight="700" fill="#8250DF" letter-spacing="0.8">HARDENED IMAGE</text><rect x="1106.0" y="808" width="34" height="34" rx="7" fill="#1B2530"/><text x="1123.0" y="831" font-size="16" font-weight="800" fill="#FFFFFF" text-anchor="middle">M</text><text x="1148.0" y="824" font-size="15" font-weight="800" fill="#17191E">maven</text><text x="1148.0" y="840" font-size="11" fill="#1D63ED">maven</text><text x="1106.0" y="914" font-size="10.5" fill="#5B6B84">OS</text><text x="1282.0" y="914" font-size="10.5" font-weight="600" fill="#17191E" text-anchor="end">Alpine, Debian</text><text x="1106.0" y="936" font-size="10.5" fill="#5B6B84">Architecture</text><text x="1282.0" y="936" font-size="10.5" font-weight="600" fill="#17191E" text-anchor="end">amd64, arm64</text><text x="1106.0" y="958" font-size="10.5" fill="#5B6B84">Compliance</text><text x="1282.0" y="958" font-size="10.5" font-weight="600" fill="#17191E" text-anchor="end">FIPS</text>
<rect x="1314.0" y="774" width="208.0" height="224" rx="8" fill="#FFFFFF" stroke="#E4E8EF" stroke-width="1.5"/><text x="1330.0" y="796" font-size="9.5" font-weight="700" fill="#8250DF" letter-spacing="0.8">HARDENED IMAGE</text><rect x="1330.0" y="808" width="34" height="34" rx="7" fill="#1B2530"/><text x="1347.0" y="831" font-size="16" font-weight="800" fill="#FFFFFF" text-anchor="middle">K</text><text x="1372.0" y="824" font-size="15" font-weight="800" fill="#17191E">kubectl</text><text x="1372.0" y="840" font-size="11" fill="#1D63ED">kubernetes</text><text x="1330.0" y="914" font-size="10.5" fill="#5B6B84">OS</text><text x="1506.0" y="914" font-size="10.5" font-weight="600" fill="#17191E" text-anchor="end">Alpine, Debian</text><text x="1330.0" y="936" font-size="10.5" fill="#5B6B84">Architecture</text><text x="1506.0" y="936" font-size="10.5" font-weight="600" fill="#17191E" text-anchor="end">amd64, arm64</text><text x="1330.0" y="958" font-size="10.5" fill="#5B6B84">Compliance</text><text x="1506.0" y="958" font-size="10.5" font-weight="600" fill="#17191E" text-anchor="end">FIPS</text>
</g>
</svg>