<svg xmlns="http://www.w3.org/2000/svg" viewBox="0 0 2000 1125" font-family="Helvetica, Arial, sans-serif">
<rect width="2000" height="1125" fill="#ffffff"/>
<text x="110" y="128" font-size="70" font-weight="800" fill="#111827">Traditional vs Agentic Developer Workflow</text>
<rect x="110" y="220" width="855" height="700" rx="28" fill="#eef2f7"/>
<rect x="1035" y="220" width="855" height="700" rx="28" fill="#0d1b3e"/>
<text x="162" y="312" font-size="34" font-weight="800" letter-spacing="1.5" fill="#0f172a">TRADITIONAL WORKFLOW</text>
<text x="1087" y="312" font-size="34" font-weight="800" letter-spacing="1.5" fill="#f59e0b">AGENTIC WORKFLOW</text>
<g><circle cx="186.0" cy="408.0" r="9.0" fill="#1f3a63"/><path d="M 170.4 436.8 C 170.4 418.8 177.6 421.2 186.0 421.2 C 194.4 421.2 201.6 418.8 201.6 436.8 Z" fill="#1f3a63"/></g><text x="226" y="429" font-size="25" fill="#1f2937" xml:space="preserve"><tspan font-weight="700">Developer pulls base image</tspan><tspan fill="#475569"> - </tspan><tspan fill="#475569" font-style="italic">manually, with intent</tspan></text>
<g><circle cx="186.0" cy="500.0" r="9.0" fill="#1f3a63"/><path d="M 170.4 528.8 C 170.4 510.8 177.6 513.2 186.0 513.2 C 194.4 513.2 201.6 510.8 201.6 528.8 Z" fill="#1f3a63"/></g><text x="226" y="521" font-size="25" fill="#1f2937" xml:space="preserve"><tspan font-weight="700">Developer installs dependencies</tspan><tspan fill="#475569"> - </tspan><tspan fill="#475569" font-style="italic">reviewed in a PR</tspan></text>
<g><circle cx="186.0" cy="592.0" r="9.0" fill="#1f3a63"/><path d="M 170.4 620.8 C 170.4 602.8 177.6 605.2 186.0 605.2 C 194.4 605.2 201.6 602.8 201.6 620.8 Z" fill="#1f3a63"/></g><text x="226" y="613" font-size="25" fill="#1f2937" xml:space="preserve"><tspan font-weight="700">CI pipeline runs</tspan><tspan fill="#475569"> - </tspan><tspan fill="#475569" font-style="italic">with human-authored config</tspan></text>
<g><polygon points="1112.0,408.9 1101.0,427.6 1123.0,427.6" fill="none" stroke="#f59e0b" stroke-width="2.5" stroke-linejoin="round"/><line x1="1112.0" y1="416.6" x2="1112.0" y2="421.7" stroke="#f59e0b" stroke-width="2.5" stroke-linecap="round"/><circle cx="1112.0" cy="425.1" r="1.4" fill="#f59e0b"/></g><text x="1150" y="429" font-size="25" fill="#cbd5e1" xml:space="preserve"><tspan font-weight="700">Agent pulls base image</tspan><tspan fill="#ffffff"> - </tspan><tspan fill="#ffffff" font-weight="700">autonomously</tspan></text>
<g><polygon points="1112.0,500.9 1101.0,519.6 1123.0,519.6" fill="none" stroke="#f59e0b" stroke-width="2.5" stroke-linejoin="round"/><line x1="1112.0" y1="508.6" x2="1112.0" y2="513.7" stroke="#f59e0b" stroke-width="2.5" stroke-linecap="round"/><circle cx="1112.0" cy="517.1" r="1.4" fill="#f59e0b"/></g><text x="1150" y="521" font-size="25" fill="#cbd5e1" xml:space="preserve"><tspan font-weight="700">Agent installs packages</tspan><tspan fill="#ffffff"> - </tspan><tspan fill="#ffffff" font-weight="700">no human review</tspan></text>
<g><polygon points="1112.0,593.0 1101.0,611.6 1123.0,611.6" fill="none" stroke="#f59e0b" stroke-width="2.5" stroke-linejoin="round"/><line x1="1112.0" y1="600.6" x2="1112.0" y2="605.7" stroke="#f59e0b" stroke-width="2.5" stroke-linecap="round"/><circle cx="1112.0" cy="609.1" r="1.4" fill="#f59e0b"/></g><text x="1150" y="613" font-size="25" fill="#cbd5e1" xml:space="preserve"><tspan font-weight="700">Agent invokes external tools</tspan><tspan fill="#ffffff"> - </tspan><tspan fill="#ffffff" font-weight="700">with real credentials</tspan></text>
<g><polygon points="1112.0,685.0 1101.0,703.6 1123.0,703.6" fill="none" stroke="#f59e0b" stroke-width="2.5" stroke-linejoin="round"/><line x1="1112.0" y1="692.6" x2="1112.0" y2="697.7" stroke="#f59e0b" stroke-width="2.5" stroke-linecap="round"/><circle cx="1112.0" cy="701.1" r="1.4" fill="#f59e0b"/></g><text x="1150" y="705" font-size="25" fill="#cbd5e1" xml:space="preserve"><tspan font-weight="700">Agent modifies Dockerfile</tspan><tspan fill="#ffffff"> - </tspan><tspan fill="#ffffff" font-weight="700">mid-pipeline</tspan></text>
<rect x="110" y="968" width="6" height="46" rx="3" fill="#2563eb"/>
<text x="138" y="1004" font-size="34" font-style="italic" fill="#334155">"The better the agent, the bigger the blast radius."</text>
</svg>